<?xml version="1.0" standalone="no"?>
<!DOCTYPE svg PUBLIC "-//W3C//DTD SVG 20010904//EN"
 "http://www.w3.org/TR/2001/REC-SVG-20010904/DTD/svg10.dtd">
<svg version="1.0" xmlns="http://www.w3.org/2000/svg"
 width="20.000000pt" height="20.000000pt" viewBox="0 0 20.000000 20.000000"
 preserveAspectRatio="xMidYMid meet">

<g transform="translate(0.000000,20.000000) scale(0.100000,-0.100000)"
fill="#000000" stroke="none">
<path d="M34 166 c-46 -46 -46 -86 0 -132 24 -25 43 -34 66 -34 23 0 41 9 66
34 46 46 46 86 0 132 -46 46 -86 46 -132 0z m127 -5 c18 -19 29 -40 29 -58 0
-38 -15 -60 -32 -47 -16 13 -97 12 -117 0 -17 -11 -31 10 -31 47 0 40 49 87
90 87 22 0 41 -9 61 -29z m-4 -114 c12 -12 -26 -37 -57 -37 -31 0 -66 23 -57
37 7 12 102 11 114 0z"/>
<path d="M70 146 c-15 -19 -9 -58 10 -63 12 -4 12 -3 2 5 -8 5 -12 20 -10 33
2 18 9 24 28 24 32 0 40 -40 13 -61 -17 -14 -16 -14 5 -4 38 18 24 80 -19 80
-9 0 -22 -7 -29 -14z"/>
</g>
</svg>
