<?xml version="1.0" standalone="no"?>
<!DOCTYPE svg PUBLIC "-//W3C//DTD SVG 20010904//EN"
 "http://www.w3.org/TR/2001/REC-SVG-20010904/DTD/svg10.dtd">
<svg version="1.0" xmlns="http://www.w3.org/2000/svg"
 width="20.000000pt" height="18.000000pt" viewBox="0 0 20.000000 18.000000"
 preserveAspectRatio="xMidYMid meet">

<g transform="translate(0.000000,18.000000) scale(0.100000,-0.100000)"
fill="#000000" stroke="none">
<path d="M7 174 c-9 -10 -9 -164 1 -164 4 0 6 36 4 80 l-4 80 76 0 c68 0 76
-2 76 -19 0 -14 -8 -21 -26 -23 -56 -7 -59 -68 -3 -68 28 0 31 -3 26 -25 -3
-20 -1 -25 11 -23 22 4 35 67 25 120 l-9 43 -85 3 c-47 1 -88 0 -92 -4z m170
-36 c-3 -7 -5 -2 -5 12 0 14 2 19 5 13 2 -7 2 -19 0 -25z m13 -43 c0 -21 -5
-25 -31 -25 -19 0 -28 4 -23 11 4 8 1 8 -13 1 -17 -9 -19 -8 -17 11 1 12 3 23
3 25 1 1 19 2 41 2 36 0 40 -2 40 -25z m-13 -67 c-3 -7 -5 -2 -5 12 0 14 2 19
5 13 2 -7 2 -19 0 -25z"/>
<path d="M23 95 c0 -38 2 -53 4 -32 2 20 2 52 0 70 -2 17 -4 1 -4 -38z"/>
</g>
</svg>
