<svg width="22" height="20" viewBox="0 0 22 20" fill="none" xmlns="http://www.w3.org/2000/svg">
<path d="M5.96429 1.38062L1.2348 4.46366L5.35022 5.60019L10.1329 2.19823L5.96429 1.38062ZM10.8192 2.59476L5.74682 6.10882L7.94124 11.23L8.30793 10.9388L8.48969 10.3252C8.36664 10.2523 8.26118 10.1338 8.19037 9.98882C8.11957 9.84385 8.08756 9.6809 8.09953 9.52636C8.11129 9.37632 8.16386 9.24265 8.2492 9.14581C8.33454 9.04896 8.44795 8.99429 8.57206 8.99015C8.62338 8.98844 8.6757 8.9954 8.72761 9.01085C8.77321 9.02466 8.81811 9.0449 8.86137 9.07116L9.20254 7.9196C9.20668 7.90579 9.21175 7.89222 9.21771 7.87897C9.21853 7.8773 9.21936 7.87564 9.2202 7.87397C9.22437 7.86488 9.22896 7.85596 9.23395 7.84722C9.23522 7.84521 9.23651 7.84322 9.23782 7.84124C9.24276 7.83291 9.24806 7.82477 9.25372 7.81683C9.26085 7.80707 9.2685 7.79765 9.27666 7.78858C9.2776 7.78762 9.27855 7.78665 9.2795 7.78569C9.28685 7.77765 9.29459 7.76991 9.3027 7.76249C9.31159 7.75436 9.32091 7.74663 9.33063 7.73933C9.33069 7.7393 9.33075 7.73927 9.3308 7.73925C9.33724 7.73461 9.34383 7.73015 9.35057 7.72589C9.35433 7.72326 9.35814 7.72069 9.362 7.71819C9.36905 7.71408 9.37624 7.71017 9.38357 7.70647C9.3874 7.70437 9.39127 7.70232 9.39517 7.70034C9.40139 7.69748 9.4077 7.69477 9.41408 7.69222C9.41946 7.68978 9.4249 7.68747 9.43041 7.68526C9.43661 7.68314 9.44287 7.68116 9.44918 7.67933C9.45501 7.67734 9.46088 7.67547 9.4668 7.67374C9.47255 7.67232 9.47834 7.67101 9.48416 7.66983C9.49085 7.66819 9.49758 7.6667 9.50436 7.66538C9.51163 7.66428 9.51894 7.66337 9.52627 7.66265C9.53155 7.6619 9.53685 7.66124 9.54217 7.66069C9.54231 7.66069 9.54245 7.66069 9.5426 7.66069C9.54274 7.66065 9.54288 7.66061 9.54303 7.66058L10.9878 7.54835C11.0209 7.43618 11.0795 7.34161 11.1575 7.27445C11.2355 7.20729 11.3301 7.16999 11.4315 7.16644C11.4828 7.16472 11.5352 7.17168 11.5871 7.18714C11.7272 7.22921 11.8575 7.331 11.9535 7.47335L12.514 7.42987L10.8192 2.5946L10.8192 2.59476ZM5.89777 2.89187C6.07959 2.8953 6.23367 2.93115 6.33389 2.99333C6.43412 3.05552 6.47432 3.1402 6.44769 3.23304C6.4171 3.33974 6.30061 3.44906 6.12383 3.53695C5.94704 3.62484 5.72446 3.68411 5.50504 3.70171C5.39638 3.71042 5.29177 3.70865 5.19719 3.69647C5.1026 3.6843 5.01988 3.66198 4.95377 3.63078C4.88765 3.59958 4.83943 3.56011 4.81185 3.51462C4.78428 3.46914 4.77789 3.41853 4.79305 3.36569C4.80817 3.31286 4.84455 3.25882 4.90011 3.20667C4.95567 3.15451 5.02932 3.10527 5.11686 3.06174C5.20439 3.01821 5.3041 2.98125 5.41028 2.95298C5.51646 2.9247 5.62704 2.90566 5.73569 2.89694C5.79088 2.89255 5.84514 2.89084 5.89769 2.89187H5.89777ZM10.2045 3.8105C10.2558 3.80879 10.3082 3.81576 10.3601 3.8312C10.5124 3.8765 10.6528 3.99224 10.7504 4.15296C10.848 4.31368 10.8948 4.50623 10.8805 4.68823C10.8735 4.77836 10.8516 4.86319 10.8162 4.93787C10.7808 5.01255 10.7326 5.07562 10.6743 5.12349C10.6159 5.17136 10.5487 5.20308 10.4763 5.21684C10.4039 5.2306 10.3279 5.22614 10.2524 5.2037C10.177 5.18128 10.1037 5.14133 10.0368 5.08613C9.9698 5.03093 9.91045 4.96156 9.86211 4.88197C9.81378 4.80239 9.7774 4.71415 9.75506 4.62231C9.73273 4.53046 9.72486 4.4368 9.73192 4.34667C9.74368 4.19663 9.79626 4.06296 9.88161 3.96613C9.96696 3.86929 10.0804 3.81463 10.2045 3.8105ZM1.04102 5.14499L3.0602 9.60296L7.10941 11.1803L5.13336 6.27522L1.04102 5.14495V5.14499ZM7.39549 5.82585C7.44683 5.82411 7.49919 5.83104 7.55112 5.84647C7.7034 5.8918 7.84377 6.00754 7.94135 6.16826C8.03893 6.32898 8.08574 6.52151 8.07148 6.70351C8.06441 6.79363 8.04257 6.87846 8.00718 6.95314C7.9718 7.02782 7.92357 7.0909 7.86525 7.13877C7.80693 7.18664 7.73967 7.21836 7.66729 7.23213C7.59492 7.2459 7.51886 7.24144 7.44345 7.21901C7.29115 7.17372 7.15077 7.05798 7.05317 6.89725C6.95557 6.73653 6.90875 6.54399 6.92301 6.36198C6.93477 6.21196 6.98733 6.07831 7.07267 5.98147C7.158 5.88464 7.27139 5.83 7.39549 5.82585ZM4.16755 6.33429C4.27406 6.32901 4.40757 6.38636 4.54219 6.49519C4.67681 6.60403 4.80294 6.75659 4.89609 6.92327C4.94543 7.01156 4.9841 7.10127 5.00989 7.1873C5.03567 7.27333 5.04807 7.35399 5.04638 7.42467C5.04468 7.49535 5.02892 7.55466 5 7.59923C4.97108 7.64379 4.92957 7.67274 4.87782 7.6844C4.77331 7.70792 4.6335 7.65966 4.48916 7.55022C4.34481 7.44078 4.20775 7.27914 4.10812 7.10085C4.00853 6.92262 3.95451 6.74234 3.95792 6.59964C3.96134 6.45695 4.02192 6.36353 4.12634 6.33991C4.13949 6.33691 4.15321 6.33503 4.16755 6.33429ZM15.4852 7.90499L10.6683 8.27909L15.5565 11.4012L20.4377 10.7389L15.4852 7.90487V7.90499ZM3.04336 8.28218C3.14986 8.27687 3.28339 8.3342 3.41803 8.44304C3.55268 8.55187 3.67882 8.70445 3.77198 8.87116C3.87162 9.04945 3.92568 9.22979 3.92225 9.37253C3.91883 9.51526 3.85821 9.60868 3.75372 9.63226C3.64921 9.65579 3.5094 9.60753 3.36506 9.4981C3.22071 9.38867 3.08365 9.22703 2.98402 9.04874C2.8844 8.87047 2.83036 8.69016 2.83379 8.54744C2.83721 8.40473 2.89782 8.31131 3.00228 8.28772C3.01543 8.28478 3.0292 8.28295 3.04353 8.28226L3.04336 8.28218ZM9.8057 8.58737L8.02086 14.6103L12.9887 18.4953L15.0146 11.9144L9.8057 8.58745V8.58737ZM15.2622 9.02362C15.3955 9.02587 15.5422 9.04406 15.6897 9.07662C15.8371 9.10918 15.9808 9.15512 16.1084 9.21046C16.2113 9.25516 16.3014 9.30501 16.3736 9.35717C16.4457 9.40932 16.4985 9.46276 16.5289 9.51442C16.5592 9.56609 16.5666 9.61498 16.5505 9.65829C16.5344 9.7016 16.4953 9.7385 16.4352 9.76687C16.3752 9.79524 16.2955 9.81453 16.2006 9.82364C16.1058 9.83275 15.9976 9.8315 15.8824 9.81996C15.7671 9.80842 15.647 9.78681 15.5289 9.75638C15.4108 9.72594 15.297 9.68727 15.194 9.64257C14.9861 9.5523 14.8348 9.44296 14.7735 9.33862C14.7122 9.23427 14.7458 9.14346 14.867 9.08616C14.9592 9.04264 15.0969 9.02085 15.2621 9.02366L15.2622 9.02362ZM20.9596 11.379L15.7655 12.0838L13.7536 18.6196L18.7508 17.3785L20.9596 11.379ZM13.1475 11.8008C13.2082 11.8009 13.2695 11.8133 13.3296 11.8377C13.4171 11.8731 13.5007 11.9333 13.5758 12.0148C13.6509 12.0962 13.716 12.1974 13.7673 12.3124C13.8187 12.4275 13.8553 12.5542 13.8751 12.6853C13.895 12.8165 13.8976 12.9495 13.8828 13.0767C13.853 13.3337 13.7542 13.5517 13.6083 13.6828C13.4625 13.8139 13.2813 13.8473 13.1048 13.7757C13.0174 13.7402 12.9338 13.6801 12.8587 13.5986C12.7836 13.5172 12.7185 13.416 12.6671 13.301C12.6157 13.1859 12.5791 13.0592 12.5593 12.928C12.5395 12.7969 12.5369 12.6639 12.5517 12.5366C12.5763 12.3248 12.6478 12.1382 12.7555 12.0053C12.8631 11.8724 13.0008 11.8006 13.1475 11.8008ZM19.7684 12.2554C19.9086 12.2516 20.0248 12.3085 20.0981 12.4167C20.1842 12.5439 20.2047 12.7324 20.1549 12.9407C20.1051 13.149 19.9892 13.3601 19.8328 13.5275C19.6763 13.6948 19.492 13.8048 19.3205 13.8332C19.1489 13.8616 19.0042 13.8061 18.9181 13.6789C18.832 13.5517 18.8116 13.3633 18.8613 13.155C18.9111 12.9467 19.0269 12.7356 19.1834 12.5682C19.2723 12.4732 19.3711 12.3957 19.4724 12.3415C19.5737 12.2873 19.6749 12.2579 19.7685 12.2554L19.7684 12.2554ZM16.8166 12.6719C16.9568 12.6682 17.073 12.725 17.1463 12.8333C17.2324 12.9605 17.2528 13.149 17.2031 13.3573C17.1533 13.5656 17.0374 13.7766 16.8809 13.944C16.7244 14.1114 16.5402 14.2214 16.3686 14.2498C16.1971 14.2782 16.0524 14.2227 15.9663 14.0955C15.8802 13.9682 15.8598 13.7798 15.9095 13.5715C15.9593 13.3632 16.0752 13.1521 16.2317 12.9848C16.3206 12.8897 16.4193 12.8122 16.5206 12.758C16.6219 12.7039 16.7231 12.6744 16.8167 12.6719H16.8166ZM9.34026 13.1917C9.40097 13.1917 9.46226 13.2042 9.52245 13.2286C9.60984 13.264 9.69348 13.3242 9.76858 13.4057C9.84367 13.4871 9.90876 13.5883 9.96012 13.7033C10.0115 13.8184 10.0481 13.9451 10.0679 14.0763C10.0877 14.2074 10.0903 14.3404 10.0755 14.4676C10.0608 14.5949 10.0289 14.7139 9.98185 14.8179C9.93476 14.9219 9.87334 15.0089 9.8011 15.0738C9.72885 15.1387 9.6472 15.1803 9.5608 15.1962C9.4744 15.2122 9.38495 15.2021 9.29755 15.1666C9.21014 15.1312 9.1265 15.071 9.0514 14.9895C8.9763 14.9081 8.91121 14.8069 8.85985 14.6919C8.80849 14.5768 8.77185 14.4501 8.75205 14.319C8.73224 14.1878 8.72964 14.0548 8.74441 13.9276C8.76898 13.7157 8.84055 13.5291 8.94815 13.3962C9.05575 13.2633 9.19347 13.1914 9.34021 13.1916L9.34026 13.1917ZM18.4616 15.5694C18.6017 15.5657 18.7179 15.6225 18.7911 15.7307C18.8773 15.8579 18.8977 16.0464 18.8479 16.2547C18.7982 16.463 18.6823 16.674 18.5259 16.8414C18.3694 17.0088 18.1851 17.1188 18.0135 17.1472C17.842 17.1756 17.6973 17.1201 17.6112 16.9928C17.5251 16.8656 17.5047 16.6772 17.5544 16.4689C17.6042 16.2606 17.72 16.0495 17.8765 15.8821C17.9654 15.7871 18.0642 15.7096 18.1655 15.6554C18.2668 15.6012 18.368 15.5718 18.4616 15.5693V15.5694ZM15.4395 16.3307C15.5797 16.3269 15.6958 16.3838 15.7691 16.4921C15.8552 16.6192 15.8756 16.8077 15.8259 17.016C15.7761 17.2243 15.6603 17.4354 15.5038 17.6028C15.4263 17.6856 15.3412 17.7553 15.2533 17.8077C15.1653 17.8602 15.0764 17.8944 14.9914 17.9085C14.9065 17.9225 14.8273 17.9161 14.7582 17.8896C14.6892 17.8631 14.6317 17.8171 14.5891 17.7541C14.503 17.6269 14.4826 17.4384 14.5324 17.2301C14.5821 17.0218 14.698 16.8108 14.8545 16.6434C14.9434 16.5483 15.0422 16.4708 15.1435 16.4167C15.2448 16.3625 15.346 16.3331 15.4395 16.3306L15.4395 16.3307Z" fill="#1C2022"/>
</svg>
