<svg width="20" height="20" viewBox="0 0 20 20" fill="none" xmlns="http://www.w3.org/2000/svg">
<mask id="path-1-inside-1_843_140" fill="white">
<path d="M10.0001 12.6357C7.597 12.6357 5.65902 10.6977 5.65902 8.29458C5.65902 5.89148 7.597 3.95349 10.0001 3.95349C12.4032 3.95349 14.3412 5.89148 14.3412 8.29458C14.3412 10.6977 12.4032 12.6357 10.0001 12.6357ZM10.0001 4.98708C8.16548 4.98708 6.69261 6.48579 6.69261 8.29458C6.69261 10.1034 8.16548 11.6021 10.0001 11.6021C11.8347 11.6021 13.3076 10.1034 13.3076 8.29458C13.3076 6.48579 11.8347 4.98708 10.0001 4.98708Z"/>
<path fill-rule="evenodd" clip-rule="evenodd" d="M0 10C0 15.5297 4.49612 20 10 20C15.5039 20 20 15.5039 20 10C20 4.49612 15.5039 0 10 0C4.49612 0 0 4.47028 0 10ZM1.03359 10C1.03359 5.0646 5.0646 1.03359 10 1.03359C14.9354 1.03359 18.9664 5.0646 18.9664 10C18.9664 12.0737 18.2547 13.9878 17.0634 15.5102C17.0205 15.4389 16.9748 15.368 16.9252 15.2972C16.0725 14.0052 14.7029 13.1525 13.2042 12.9457C12.9975 12.9199 12.765 12.9716 12.5841 13.1008C11.8347 13.6434 10.9562 13.9276 10.0259 13.9276C9.09571 13.9276 8.21715 13.6434 7.4678 13.1008C7.28692 12.9716 7.0802 12.9199 6.84765 12.9457C5.3231 13.1525 3.97943 14.0052 3.12672 15.2972C3.06842 15.3804 3.0155 15.4637 2.96622 15.5478C1.75704 14.0194 1.03359 12.0908 1.03359 10ZM3.70805 16.3757C5.32924 17.9759 7.55351 18.9664 10 18.9664C12.4651 18.9664 14.7046 17.9608 16.3288 16.3391C16.2492 16.1741 16.1623 16.0199 16.0466 15.8656C15.3748 14.8579 14.3153 14.1602 13.1267 13.9793C12.2223 14.6253 11.1371 14.9612 10.0259 14.9612C8.88899 14.9612 7.82956 14.6253 6.92516 13.9793C5.73654 14.1602 4.6771 14.832 4.00527 15.8656C3.90178 16.0312 3.79825 16.1969 3.70805 16.3757Z"/>
</mask>
<path d="M10.0001 12.6357C7.597 12.6357 5.65902 10.6977 5.65902 8.29458C5.65902 5.89148 7.597 3.95349 10.0001 3.95349C12.4032 3.95349 14.3412 5.89148 14.3412 8.29458C14.3412 10.6977 12.4032 12.6357 10.0001 12.6357ZM10.0001 4.98708C8.16548 4.98708 6.69261 6.48579 6.69261 8.29458C6.69261 10.1034 8.16548 11.6021 10.0001 11.6021C11.8347 11.6021 13.3076 10.1034 13.3076 8.29458C13.3076 6.48579 11.8347 4.98708 10.0001 4.98708Z" fill="#8E9FA7"/>
<path fill-rule="evenodd" clip-rule="evenodd" d="M0 10C0 15.5297 4.49612 20 10 20C15.5039 20 20 15.5039 20 10C20 4.49612 15.5039 0 10 0C4.49612 0 0 4.47028 0 10ZM1.03359 10C1.03359 5.0646 5.0646 1.03359 10 1.03359C14.9354 1.03359 18.9664 5.0646 18.9664 10C18.9664 12.0737 18.2547 13.9878 17.0634 15.5102C17.0205 15.4389 16.9748 15.368 16.9252 15.2972C16.0725 14.0052 14.7029 13.1525 13.2042 12.9457C12.9975 12.9199 12.765 12.9716 12.5841 13.1008C11.8347 13.6434 10.9562 13.9276 10.0259 13.9276C9.09571 13.9276 8.21715 13.6434 7.4678 13.1008C7.28692 12.9716 7.0802 12.9199 6.84765 12.9457C5.3231 13.1525 3.97943 14.0052 3.12672 15.2972C3.06842 15.3804 3.0155 15.4637 2.96622 15.5478C1.75704 14.0194 1.03359 12.0908 1.03359 10ZM3.70805 16.3757C5.32924 17.9759 7.55351 18.9664 10 18.9664C12.4651 18.9664 14.7046 17.9608 16.3288 16.3391C16.2492 16.1741 16.1623 16.0199 16.0466 15.8656C15.3748 14.8579 14.3153 14.1602 13.1267 13.9793C12.2223 14.6253 11.1371 14.9612 10.0259 14.9612C8.88899 14.9612 7.82956 14.6253 6.92516 13.9793C5.73654 14.1602 4.6771 14.832 4.00527 15.8656C3.90178 16.0312 3.79825 16.1969 3.70805 16.3757Z" fill="#8E9FA7"/>
<path d="M17.0634 15.5102L15.349 16.5403L16.8466 19.0326L18.6384 16.7428L17.0634 15.5102ZM16.9252 15.2972L15.2559 16.3988L15.271 16.4217L15.2867 16.4441L16.9252 15.2972ZM13.2042 12.9457L13.4775 10.9645L13.4649 10.9628L13.4523 10.9612L13.2042 12.9457ZM12.5841 13.1008L11.4216 11.4733L11.4111 11.4809L12.5841 13.1008ZM7.4678 13.1008L8.64085 11.4809L8.63028 11.4733L7.4678 13.1008ZM6.84765 12.9457L6.62677 10.958L6.60281 10.9606L6.57891 10.9639L6.84765 12.9457ZM3.12672 15.2972L4.76518 16.4441L4.78087 16.4217L4.79593 16.3988L3.12672 15.2972ZM2.96622 15.5478L1.39769 16.7887L3.21306 19.0835L4.69195 16.5587L2.96622 15.5478ZM3.70805 16.3757L1.92229 15.4751L1.26633 16.7758L2.30309 17.7991L3.70805 16.3757ZM16.3288 16.3391L17.7419 17.7545L18.7478 16.7502L18.1301 15.47L16.3288 16.3391ZM16.0466 15.8656L14.3825 16.975L14.4133 17.0212L14.4466 17.0656L16.0466 15.8656ZM13.1267 13.9793L13.4276 12.0021L12.6249 11.8799L11.9642 12.3519L13.1267 13.9793ZM6.92516 13.9793L8.08764 12.3519L7.42695 11.8799L6.62427 12.0021L6.92516 13.9793ZM4.00527 15.8656L2.32838 14.7757L2.31869 14.7906L2.30926 14.8056L4.00527 15.8656ZM10.0001 10.6357C8.70157 10.6357 7.65902 9.59311 7.65902 8.29458H3.65902C3.65902 11.8023 6.49243 14.6357 10.0001 14.6357V10.6357ZM7.65902 8.29458C7.65902 6.99605 8.70157 5.95349 10.0001 5.95349V1.95349C6.49243 1.95349 3.65902 4.78691 3.65902 8.29458H7.65902ZM10.0001 5.95349C11.2986 5.95349 12.3412 6.99605 12.3412 8.29458H16.3412C16.3412 4.78691 13.5078 1.95349 10.0001 1.95349V5.95349ZM12.3412 8.29458C12.3412 9.59311 11.2986 10.6357 10.0001 10.6357V14.6357C13.5078 14.6357 16.3412 11.8023 16.3412 8.29458H12.3412ZM10.0001 2.98708C7.05075 2.98708 4.69261 5.3914 4.69261 8.29458H8.69261C8.69261 7.58018 9.2802 6.98708 10.0001 6.98708V2.98708ZM4.69261 8.29458C4.69261 11.1978 7.05076 13.6021 10.0001 13.6021V9.60207C9.2802 9.60207 8.69261 9.00897 8.69261 8.29458H4.69261ZM10.0001 13.6021C12.9494 13.6021 15.3076 11.1978 15.3076 8.29458H11.3076C11.3076 9.00897 10.72 9.60207 10.0001 9.60207V13.6021ZM15.3076 8.29458C15.3076 5.3914 12.9494 2.98708 10.0001 2.98708V6.98708C10.72 6.98708 11.3076 7.58018 11.3076 8.29458H15.3076ZM10 18C5.59733 18 2 14.4218 2 10H-2C-2 16.6377 3.39492 22 10 22V18ZM18 10C18 14.3993 14.3993 18 10 18V22C16.6084 22 22 16.6084 22 10H18ZM10 2C14.3993 2 18 5.60069 18 10H22C22 3.39155 16.6084 -2 10 -2V2ZM2 10C2 5.57821 5.59733 2 10 2V-2C3.39492 -2 -2 3.36235 -2 10H2ZM10 -0.966408C3.96003 -0.966408 -0.966408 3.96003 -0.966408 10H3.03359C3.03359 6.16917 6.16917 3.03359 10 3.03359V-0.966408ZM20.9664 10C20.9664 3.96003 16.04 -0.966408 10 -0.966408V3.03359C13.8308 3.03359 16.9664 6.16917 16.9664 10H20.9664ZM18.6384 16.7428C20.0935 14.8833 20.9664 12.539 20.9664 10H16.9664C16.9664 11.6085 16.416 13.0923 15.4883 14.2777L18.6384 16.7428ZM15.2867 16.4441C15.308 16.4744 15.3285 16.5061 15.349 16.5403L18.7777 14.4802C18.7125 14.3716 18.6416 14.2616 18.5636 14.1502L15.2867 16.4441ZM12.931 14.927C13.8608 15.0552 14.721 15.5884 15.2559 16.3988L18.5944 14.1955C17.4239 12.422 15.5451 11.2497 13.4775 10.9645L12.931 14.927ZM13.7466 14.7282C13.6119 14.8244 13.4765 14.8795 13.3557 14.9088C13.2358 14.9379 13.102 14.9485 12.9562 14.9303L13.4523 10.9612C12.7763 10.8767 12.0344 11.0356 11.4216 11.4733L13.7466 14.7282ZM10.0259 15.9276C11.3756 15.9276 12.665 15.5115 13.7571 14.7207L11.4111 11.4809C11.0044 11.7753 10.5368 11.9276 10.0259 11.9276V15.9276ZM6.29478 14.7207C7.38688 15.5115 8.67632 15.9276 10.0259 15.9276V11.9276C9.5151 11.9276 9.04743 11.7753 8.64082 11.4809L6.29478 14.7207ZM7.06853 14.9335C6.97169 14.9443 6.84086 14.9426 6.69202 14.9054C6.5415 14.8678 6.4101 14.8031 6.30532 14.7282L8.63028 11.4733C8.02592 11.0416 7.3209 10.8808 6.62677 10.958L7.06853 14.9335ZM4.79593 16.3988C5.33553 15.5813 6.17243 15.0556 7.11638 14.9276L6.57891 10.9639C4.47376 11.2493 2.62333 12.4291 1.4575 14.1955L4.79593 16.3988ZM4.69195 16.5587C4.71625 16.5172 4.74026 16.4797 4.76518 16.4441L1.48825 14.1502C1.39659 14.2812 1.31476 14.4102 1.24048 14.537L4.69195 16.5587ZM-0.966408 10C-0.966408 12.56 -0.0790562 14.922 1.39769 16.7887L4.53475 14.307C3.59314 13.1167 3.03359 11.6217 3.03359 10H-0.966408ZM2.30309 17.7991C4.2807 19.7511 7.00299 20.9664 10 20.9664V16.9664C8.10403 16.9664 6.37779 16.2007 5.113 14.9523L2.30309 17.7991ZM10 20.9664C13.0199 20.9664 15.7607 19.7325 17.7419 17.7545L14.9157 14.9238C13.6485 16.189 11.9103 16.9664 10 16.9664V20.9664ZM18.1301 15.47C18.013 15.2274 17.8622 14.953 17.6466 14.6657L14.4466 17.0656C14.4625 17.0868 14.4854 17.1209 14.5276 17.2083L18.1301 15.47ZM17.7107 14.7562C16.7415 13.3024 15.1982 12.2715 13.4276 12.0021L12.8258 15.9566C13.4325 16.0489 14.0081 16.4134 14.3825 16.975L17.7107 14.7562ZM11.9642 12.3519C11.4107 12.7473 10.7347 12.9612 10.0259 12.9612V16.9612C11.5394 16.9612 13.034 16.5034 14.2892 15.6068L11.9642 12.3519ZM10.0259 12.9612C9.29639 12.9612 8.64522 12.7501 8.08764 12.3519L5.76269 15.6068C7.01389 16.5005 8.48159 16.9612 10.0259 16.9612V12.9612ZM6.62427 12.0021C4.8754 12.2682 3.31347 13.2601 2.32838 14.7757L5.68216 16.9556C6.04074 16.4039 6.59768 16.0522 7.22605 15.9566L6.62427 12.0021ZM2.30926 14.8056C2.21299 14.9597 2.06033 15.2014 1.92229 15.4751L5.4938 17.2763C5.53617 17.1923 5.59058 17.1027 5.70128 16.9256L2.30926 14.8056Z" fill="#1C2022" mask="url(#path-1-inside-1_843_140)"/>
</svg>
