<svg width="22" height="23" viewBox="0 0 22 23" fill="none" xmlns="http://www.w3.org/2000/svg">
<g clip-path="url(#clip0_867_133)">
<path d="M11 4.79175C10.1491 4.79175 9.33305 5.14513 8.73137 5.77416C8.12969 6.40319 7.79167 7.25633 7.79167 8.14591C7.79167 9.03549 8.12969 9.88864 8.73137 10.5177C9.33305 11.1467 10.1491 11.5001 11 11.5001C11.8509 11.5001 12.667 11.1467 13.2686 10.5177C13.8703 9.88864 14.2083 9.03549 14.2083 8.14591C14.2083 7.25633 13.8703 6.40319 13.2686 5.77416C12.667 5.14513 11.8509 4.79175 11 4.79175ZM11 6.70841C11.3647 6.70841 11.7144 6.85986 11.9723 7.12945C12.2301 7.39903 12.375 7.76467 12.375 8.14591C12.375 8.52716 12.2301 8.8928 11.9723 9.16238C11.7144 9.43196 11.3647 9.58341 11 9.58341C10.6353 9.58341 10.2856 9.43196 10.0277 9.16238C9.76987 8.8928 9.625 8.52716 9.625 8.14591C9.625 7.76467 9.76987 7.39903 10.0277 7.12945C10.2856 6.85986 10.6353 6.70841 11 6.70841ZM5.04167 7.66675C4.43388 7.66675 3.85098 7.91917 3.42121 8.36847C2.99144 8.81778 2.75 9.42717 2.75 10.0626C2.75 10.9634 3.23583 11.7397 3.9325 12.1517C4.2625 12.3434 4.63833 12.4584 5.04167 12.4584C5.445 12.4584 5.82083 12.3434 6.15083 12.1517C6.49 11.9505 6.77417 11.663 6.985 11.318C6.31719 10.4081 5.9562 9.29277 5.95833 8.14591V7.87758C5.68333 7.74341 5.37167 7.66675 5.04167 7.66675ZM16.9583 7.66675C16.6283 7.66675 16.3167 7.74341 16.0417 7.87758V8.14591C16.0417 9.29591 15.6842 10.4076 15.015 11.318C15.125 11.5001 15.2442 11.6438 15.3817 11.7876C15.8044 12.2161 16.3695 12.4565 16.9583 12.4584C17.3617 12.4584 17.7375 12.3434 18.0675 12.1517C18.7642 11.7397 19.25 10.9634 19.25 10.0626C19.25 9.42717 19.0086 8.81778 18.5788 8.36847C18.149 7.91917 17.5661 7.66675 16.9583 7.66675ZM11 13.4167C8.855 13.4167 4.58333 14.538 4.58333 16.7709V18.2084H17.4167V16.7709C17.4167 14.538 13.145 13.4167 11 13.4167ZM4.3175 13.9438C2.54833 14.1642 0 15.1034 0 16.7709V18.2084H2.75V16.3588C2.75 15.3909 3.3825 14.5859 4.3175 13.9438ZM17.6825 13.9438C18.6175 14.5859 19.25 15.3909 19.25 16.3588V18.2084H22V16.7709C22 15.1034 19.4517 14.1642 17.6825 13.9438ZM11 15.3334C12.4025 15.3334 13.97 15.8126 14.8775 16.2917H7.1225C8.03 15.8126 9.5975 15.3334 11 15.3334Z" fill="#1C2022"/>
</g>
<defs>
<clipPath id="clip0_867_133">
<rect width="22" height="23" fill="white"/>
</clipPath>
</defs>
</svg>
