<svg width="22" height="20" viewBox="0 0 22 20" fill="none" xmlns="http://www.w3.org/2000/svg">
<g clip-path="url(#clip0_868_135)">
<path d="M7.7 0C7.11652 0 6.55694 0.210714 6.14437 0.585786C5.73178 0.960859 5.5 1.46957 5.5 2H15.4C15.9835 2 16.5431 2.21071 16.9556 2.58579C17.3682 2.96086 17.6 3.46957 17.6 4V16C18.1835 16 18.7431 15.7893 19.1556 15.4142C19.5682 15.0391 19.8 14.5304 19.8 14V2C19.8 1.46957 19.5682 0.960859 19.1556 0.585786C18.7431 0.210714 18.1835 0 17.6 0L7.7 0Z" fill="#1C2022"/>
<path d="M14.3002 20H4.4002C3.81672 20 3.25714 19.7893 2.84456 19.4142C2.43198 19.0391 2.2002 18.5304 2.2002 18V5C2.2002 4.46957 2.43198 3.96086 2.84456 3.58579C3.25714 3.21071 3.81672 3 4.4002 3H14.3002C14.8837 3 15.4432 3.21071 15.8558 3.58579C16.2684 3.96086 16.5002 4.46957 16.5002 5V18C16.5002 18.5304 16.2684 19.0391 15.8558 19.4142C15.4432 19.7893 14.8837 20 14.3002 20ZM7.1502 16.5L7.6012 15.41L8.8002 15L7.6012 14.59L7.1502 13.5L6.6992 14.59L5.5002 15L6.6992 15.41L7.1502 16.5ZM10.4304 15.551L11.4776 12.99L14.2606 12.026L11.4776 11.062L10.4304 8.5L9.3832 11.062L6.6002 12.026L9.3832 12.99L10.4304 15.551ZM6.6002 10.5L7.2019 9.047L8.8002 8.5L7.2019 7.953L6.6002 6.5L5.9985 7.953L4.4002 8.5L5.9985 9.047L6.6002 10.5Z" fill="#1C2022"/>
</g>
<defs>
<clipPath id="clip0_868_135">
<rect width="22" height="20" fill="white"/>
</clipPath>
</defs>
</svg>
