<svg width="23" height="20" viewBox="0 0 23 20" fill="none" xmlns="http://www.w3.org/2000/svg">
<path d="M9.83704 16.5231H2.98218C2.83279 16.5231 2.71174 16.4021 2.71174 16.2527C2.71174 16.1033 2.83279 15.9822 2.98218 15.9822H9.83704C9.98643 15.9822 10.1075 16.1033 10.1075 16.2527C10.1075 16.4021 9.98643 16.5231 9.83704 16.5231Z" fill="#1C2022"/>
<path d="M9.83704 12.1718H2.98218C2.83279 12.1718 2.71174 12.0507 2.71174 11.9014C2.71174 11.752 2.83279 11.6309 2.98218 11.6309H9.83704C9.98643 11.6309 10.1075 11.752 10.1075 11.9014C10.1075 12.0507 9.98643 12.1718 9.83704 12.1718Z" fill="#1C2022"/>
<path d="M9.83704 8.01237H2.98218C2.83279 8.01237 2.71174 7.89131 2.71174 7.74193C2.71174 7.59254 2.83279 7.47148 2.98218 7.47148H9.83704C9.98643 7.47148 10.1075 7.59254 10.1075 7.74193C10.1075 7.89131 9.98643 8.01237 9.83704 8.01237Z" fill="#1C2022"/>
<path d="M19.6994 5.07688L16.2836 9.15106V5.27804C16.282 4.05409 15.2871 3.06014 14.0641 3.0586H12.256C11.8882 2.43889 11.0635 1.93844 9.96471 1.68422C9.94617 0.751062 9.18583 0 8.24675 0C7.30354 0 6.53728 0.761107 6.52827 1.70303C5.44881 1.9624 4.62279 2.45332 4.24778 3.0586H2.2179C0.995235 3.05988 0.0015454 4.05409 0 5.27804V17.7821C0.0015454 19.0048 0.995235 19.9987 2.2179 20H14.0639C15.2868 19.9987 16.2818 19.0045 16.2833 17.7821V13.0547L21.4779 6.85589L19.6994 5.07688ZM8.24675 0.706504C8.80567 0.706504 9.25976 1.16008 9.26104 1.719C9.25976 2.27791 8.80567 2.73175 8.24675 2.73303C7.68783 2.73175 7.234 2.27791 7.234 1.719C7.234 1.16008 7.68783 0.706504 8.24675 0.706504ZM15.5763 17.7821C15.5753 18.6107 14.894 19.2932 14.0641 19.2945H2.21816C1.38957 19.2932 0.707276 18.6109 0.705731 17.7821V5.27804C0.707276 4.44816 1.38802 3.76536 2.21816 3.76458H4.02859C4.02833 3.77463 4.02627 3.78416 4.02627 3.7942C4.02627 3.95261 4.02627 4.44044 4.02627 4.44044H12.4688C12.4688 4.44044 12.4688 4.01855 12.4688 3.7942C12.4688 3.78416 12.4667 3.77463 12.4662 3.76458H14.0639C14.8938 3.76561 15.575 4.44688 15.576 5.27804V9.99459L12.4077 13.7736L14.1885 15.5549L15.5763 13.899V17.7821Z" fill="#1C2022"/>
<path d="M21.7895 4.53471C21.2736 4.09762 20.5094 4.15763 20.0602 4.65396L21.8354 6.42937L21.9446 6.29929C22.3927 5.76974 22.3219 4.97566 21.7895 4.53471Z" fill="#1C2022"/>
<path d="M11.8 16.314L12.7277 16.0525L11.9821 15.3072L11.8 16.314Z" fill="#1C2022"/>
</svg>
