<?xml version="1.0" standalone="no"?>
<!DOCTYPE svg PUBLIC "-//W3C//DTD SVG 20010904//EN"
 "http://www.w3.org/TR/2001/REC-SVG-20010904/DTD/svg10.dtd">
<svg version="1.0" xmlns="http://www.w3.org/2000/svg"
 width="22.000000pt" height="20.000000pt" viewBox="0 0 22.000000 20.000000"
 preserveAspectRatio="xMidYMid meet">

<g transform="translate(0.000000,20.000000) scale(0.100000,-0.100000)"
fill="#000000" stroke="none">
<path d="M30 165 c-11 -13 -9 -15 13 -15 13 0 30 7 37 15 11 13 9 15 -13 15
-13 0 -30 -7 -37 -15z"/>
<path d="M82 154 c-17 -11 -21 -21 -16 -37 6 -21 5 -21 -15 2 -12 13 -24 22
-27 18 -3 -3 3 -15 14 -27 l20 -22 31 23 c31 23 40 39 20 39 -5 0 -7 5 -4 10
9 14 3 13 -23 -6z"/>
<path d="M100 105 c-6 -8 -9 -23 -5 -36 5 -16 4 -20 -6 -14 -8 4 -3 -2 11 -13
13 -11 28 -18 32 -16 12 8 2 65 -13 75 -9 6 -10 9 -2 9 6 0 15 -4 18 -10 3 -5
21 -10 38 -10 27 1 29 2 14 11 -9 5 -22 7 -29 3 -7 -4 -8 -3 -4 4 11 18 -39
15 -54 -3z"/>
<path d="M152 48 c12 -33 19 -35 35 -10 14 24 4 42 -24 40 -18 -2 -19 -5 -11
-30z"/>
</g>
</svg>
