<?xml version="1.0" standalone="no"?>
<!DOCTYPE svg PUBLIC "-//W3C//DTD SVG 20010904//EN"
 "http://www.w3.org/TR/2001/REC-SVG-20010904/DTD/svg10.dtd">
<svg version="1.0" xmlns="http://www.w3.org/2000/svg"
 width="22.000000pt" height="23.000000pt" viewBox="0 0 22.000000 23.000000"
 preserveAspectRatio="xMidYMid meet">

<g transform="translate(0.000000,23.000000) scale(0.100000,-0.100000)"
fill="#000000" stroke="none">
<path d="M84 166 c-10 -26 4 -48 28 -44 17 2 23 10 23 28 0 18 -6 26 -23 28
-13 2 -25 -3 -28 -12z m36 -22 c0 -8 -4 -12 -10 -9 -5 3 -10 10 -10 16 0 5 5
9 10 9 6 0 10 -7 10 -16z"/>
<path d="M37 143 c-14 -13 -6 -33 12 -33 14 0 18 5 14 20 -5 21 -15 25 -26 13z"/>
<path d="M157 130 c-4 -15 0 -20 14 -20 12 0 19 7 19 20 0 11 -6 20 -14 20 -7
0 -16 -9 -19 -20z"/>
<path d="M63 83 c-7 -2 -13 -11 -13 -19 0 -10 15 -14 60 -14 45 0 60 4 60 14
0 8 -7 17 -16 20 -18 7 -73 7 -91 -1z m60 -10 c-7 -2 -19 -2 -25 0 -7 3 -2 5
12 5 14 0 19 -2 13 -5z"/>
<path d="M190 71 c0 -12 6 -21 15 -21 8 0 15 4 15 9 0 5 -7 14 -15 21 -13 10
-15 9 -15 -9z"/>
<path d="M7 73 c-12 -11 -8 -23 8 -23 8 0 15 7 15 15 0 16 -12 20 -23 8z"/>
</g>
</svg>
