<?xml version="1.0" standalone="no"?>
<!DOCTYPE svg PUBLIC "-//W3C//DTD SVG 20010904//EN"
 "http://www.w3.org/TR/2001/REC-SVG-20010904/DTD/svg10.dtd">
<svg version="1.0" xmlns="http://www.w3.org/2000/svg"
 width="20.000000pt" height="20.000000pt" viewBox="0 0 20.000000 20.000000"
 preserveAspectRatio="xMidYMid meet">

<g transform="translate(0.000000,20.000000) scale(0.100000,-0.100000)"
fill="#000000" stroke="none">
<path d="M34 166 c-46 -46 -46 -86 0 -132 24 -25 43 -34 66 -34 23 0 41 9 66
34 46 46 46 86 0 132 -46 46 -86 46 -132 0z m127 -5 c39 -40 39 -82 0 -122
-40 -39 -82 -39 -122 0 -39 40 -39 82 0 122 20 20 39 29 61 29 22 0 41 -9 61
-29z"/>
<path d="M75 148 c-13 -41 -13 -87 0 -98 11 -9 15 -9 15 -1 0 6 8 11 18 11 15
1 15 2 -2 15 -19 14 -19 15 6 15 14 0 29 7 32 16 8 21 8 20 -10 38 -19 19 -53
21 -59 4z m55 -28 c0 -13 -7 -20 -20 -20 -13 0 -20 7 -20 20 0 13 7 20 20 20
13 0 20 -7 20 -20z"/>
</g>
</svg>
