<svg width="30" height="30" viewBox="0 0 30 30" fill="none" xmlns="http://www.w3.org/2000/svg">
<path d="M0.00125588 15.0437C0.000420861 15.0291 0 15.0145 0 14.9999C0 14.7976 0.0803573 14.6036 0.223394 14.4606C0.36643 14.3175 0.560428 14.2372 0.762712 14.2372H20.3288L14.7356 8.41007C14.6446 8.34373 14.5694 8.25806 14.5154 8.1592C14.4615 8.06035 14.43 7.95077 14.4235 7.83834C14.4169 7.72591 14.4353 7.61342 14.4773 7.50894C14.5194 7.40446 14.584 7.31059 14.6667 7.23407C14.7493 7.15755 14.8479 7.10028 14.9553 7.06638C15.0627 7.03248 15.1762 7.02278 15.2878 7.03799C15.3994 7.0532 15.5063 7.09293 15.6007 7.15433C15.6951 7.21573 15.7747 7.29728 15.8339 7.39312L22.6678 14.5118C22.772 14.6185 22.8421 14.7538 22.8693 14.9004C22.8781 14.9479 22.8822 14.9959 22.8818 15.0437C22.8822 15.0915 22.8781 15.1394 22.8693 15.1869C22.8421 15.3336 22.772 15.4688 22.6678 15.5756L15.8339 22.6942C15.7747 22.7901 15.6951 22.8716 15.6007 22.933C15.5063 22.9944 15.3994 23.0341 15.2878 23.0493C15.1762 23.0646 15.0627 23.0549 14.9553 23.021C14.8479 22.9871 14.7493 22.9298 14.6667 22.8533C14.584 22.7768 14.5194 22.6829 14.4773 22.5784C14.4353 22.4739 14.4169 22.3614 14.4235 22.249C14.43 22.1366 14.4615 22.027 14.5154 21.9281C14.5694 21.8293 14.6446 21.7436 14.7356 21.6773L20.3288 15.8502H0.762712C0.560428 15.8502 0.36643 15.7698 0.223394 15.6268C0.0803573 15.4837 0 15.2897 0 15.0874C0 15.0728 0.000420861 15.0582 0.00125588 15.0437Z" fill="#1C2022"/>
<path d="M26.278 30H3.72203C2.73489 30 1.78818 29.6079 1.09016 28.9098C0.392142 28.2118 0 27.2651 0 26.278V21.1017C0 20.8994 0.0803573 20.7054 0.223394 20.5624C0.36643 20.4193 0.560428 20.339 0.762712 20.339C0.964996 20.339 1.15899 20.4193 1.30203 20.5624C1.44507 20.7054 1.52542 20.8994 1.52542 21.1017V26.278C1.52542 26.8605 1.75685 27.4193 2.1688 27.8312C2.58074 28.2431 3.13946 28.4746 3.72203 28.4746H26.278C26.8605 28.4746 27.4193 28.2431 27.8312 27.8312C28.2431 27.4193 28.4746 26.8605 28.4746 26.278V3.72203C28.4746 3.13946 28.2431 2.58074 27.8312 2.1688C27.4193 1.75685 26.8605 1.52542 26.278 1.52542H3.72203C3.13946 1.52542 2.58074 1.75685 2.1688 2.1688C1.75685 2.58074 1.52542 3.13946 1.52542 3.72203V8.89831C1.52542 9.10059 1.44507 9.29459 1.30203 9.43762C1.15899 9.58066 0.964996 9.66102 0.762712 9.66102C0.560428 9.66102 0.36643 9.58066 0.223394 9.43762C0.0803573 9.29459 0 9.10059 0 8.89831V3.72203C0 2.73489 0.392142 1.78818 1.09016 1.09016C1.78818 0.392142 2.73489 0 3.72203 0H26.278C27.2651 0 28.2118 0.392142 28.9098 1.09016C29.6079 1.78818 30 2.73489 30 3.72203V26.278C30 27.2651 29.6079 28.2118 28.9098 28.9098C28.2118 29.6079 27.2651 30 26.278 30Z" fill="#1C2022"/>
</svg>
