<?xml version="1.0" standalone="no"?>
<!DOCTYPE svg PUBLIC "-//W3C//DTD SVG 20010904//EN"
 "http://www.w3.org/TR/2001/REC-SVG-20010904/DTD/svg10.dtd">
<svg version="1.0" xmlns="http://www.w3.org/2000/svg"
 width="22.000000pt" height="20.000000pt" viewBox="0 0 22.000000 20.000000"
 preserveAspectRatio="xMidYMid meet">

<g transform="translate(0.000000,20.000000) scale(0.100000,-0.100000)"
fill="#000000" stroke="none">
<path d="M60 191 c0 -6 26 -11 58 -13 l57 -3 5 -70 c7 -87 22 -65 18 26 l-3
64 -67 3 c-41 2 -68 -1 -68 -7z"/>
<path d="M24 157 c-3 -8 -4 -45 -2 -83 l3 -69 68 -3 67 -3 0 86 0 85 -65 0
c-46 0 -67 -4 -71 -13z m50 -48 c-3 -5 -10 -7 -15 -3 -5 3 -7 10 -3 15 3 5 10
7 15 3 5 -3 7 -10 3 -15z m43 -44 c-13 -12 -17 -13 -27 0 -18 21 8 48 28 28
11 -11 11 -15 -1 -28z m-37 -15 c0 -5 -4 -10 -10 -10 -5 0 -10 5 -10 10 0 6 5
10 10 10 6 0 10 -4 10 -10z"/>
</g>
</svg>
