<svg width="20" height="20" viewBox="0 0 20 20" fill="none" xmlns="http://www.w3.org/2000/svg">
<path fill-rule="evenodd" clip-rule="evenodd" d="M7.79476 4.31677H11.273C12.2357 4.31677 13.1364 4.65839 13.8196 5.31056C14.4718 5.93168 14.8755 6.86336 14.8755 7.85714C14.8755 9.87578 13.2916 11.5217 11.273 11.5217H8.91277V12.2671H11.0556C11.5215 12.2671 11.9252 12.6708 11.8941 13.1677C11.8631 13.6335 11.4594 13.9752 10.9935 13.9752H8.91277V15.0932C8.91277 15.6211 8.41587 16.0248 7.88792 15.9317C7.4842 15.8385 7.20469 15.4658 7.20469 15.0621V13.9752H6.61463C6.08668 13.9752 5.68295 13.5093 5.77612 12.9814C5.86929 12.5776 6.24196 12.2981 6.64569 12.2981H7.20469V11.5528H6.61463C6.14879 11.5528 5.74507 11.1491 5.77612 10.6522C5.80718 10.1863 6.2109 9.84472 6.67674 9.84472H7.20469V4.90683C7.20469 4.56522 7.4842 4.31677 7.79476 4.31677ZM8.91277 9.84472H11.273C12.3289 9.81367 13.1985 8.9441 13.1985 7.85714C13.1674 6.73913 12.391 6.02485 11.273 5.99379H8.91277V9.84472Z" fill="#1C2022"/>
<path fill-rule="evenodd" clip-rule="evenodd" d="M20 10C20 15.5228 15.5228 20 10 20C4.47715 20 0 15.5228 0 10C0 4.47715 4.47715 0 10 0C15.5228 0 20 4.47715 20 10ZM19 10C19 14.9706 14.9706 19 10 19C5.02944 19 1 14.9706 1 10C1 5.02944 5.02944 1 10 1C14.9706 1 19 5.02944 19 10Z" fill="#1C2022"/>
</svg>
