<?xml version="1.0" standalone="no"?>
<!DOCTYPE svg PUBLIC "-//W3C//DTD SVG 20010904//EN"
 "http://www.w3.org/TR/2001/REC-SVG-20010904/DTD/svg10.dtd">
<svg version="1.0" xmlns="http://www.w3.org/2000/svg"
 width="30.000000pt" height="30.000000pt" viewBox="0 0 30.000000 30.000000"
 preserveAspectRatio="xMidYMid meet">

<g transform="translate(0.000000,30.000000) scale(0.100000,-0.100000)"
fill="#000000" stroke="none">
<path d="M12 288 c-7 -7 -11 -28 -11 -47 2 -34 2 -35 6 -6 3 17 9 36 15 43 14
17 239 17 256 0 17 -17 17 -239 0 -256 -17 -17 -242 -17 -256 1 -6 6 -12 26
-15 42 -4 29 -4 28 -6 -5 0 -20 4 -41 11 -48 17 -17 259 -17 276 0 17 17 17
259 0 276 -17 17 -259 17 -276 0z"/>
<path d="M150 225 c0 -5 12 -22 27 -37 l27 -28 -102 0 c-61 0 -102 -4 -102
-10 0 -6 41 -10 102 -10 l102 0 -29 -30 c-16 -16 -26 -32 -24 -35 3 -2 23 13
44 35 l39 40 -42 43 c-23 23 -42 38 -42 32z"/>
</g>
</svg>
