<svg width="20" height="20" viewBox="0 0 20 20" fill="none" xmlns="http://www.w3.org/2000/svg">
<path d="M19.3621 9.125H17.9121V17.0625H2.08715V4.1H9.99965V2.5H2.08715C1.88518 2.50634 1.68654 2.55307 1.50294 2.63746C1.31934 2.72184 1.15451 2.84216 1.01818 2.9913C0.88185 3.14045 0.776789 3.3154 0.709198 3.50582C0.641608 3.69624 0.612858 3.89828 0.624647 4.1V17.0625C0.617971 17.2612 0.650516 17.4592 0.72042 17.6452C0.790323 17.8313 0.896216 18.0018 1.03204 18.1469C1.16787 18.292 1.33097 18.4089 1.51201 18.4909C1.69305 18.573 1.88849 18.6185 2.08715 18.625H17.9121C18.1108 18.6185 18.3062 18.573 18.4873 18.4909C18.6683 18.4089 18.8314 18.292 18.9673 18.1469C19.1031 18.0018 19.209 17.8313 19.2789 17.6452C19.3488 17.4592 19.3813 17.2612 19.3746 17.0625L19.3621 9.125Z" fill="#1C2022"/>
<path d="M13.1999 3.5875L7.77487 9.025L7.22487 9.575L7.12487 9.675L5.22487 13.625C5.09739 13.8786 5.05309 14.1659 5.09826 14.4461C5.14342 14.7264 5.27576 14.9852 5.47646 15.1859C5.67716 15.3866 5.93602 15.5189 6.21623 15.5641C6.49645 15.6093 6.78377 15.565 7.03737 15.4375L10.9624 13.525L11.6249 12.8625L12.1624 12.325L17.5874 6.875L18.1499 6.325L18.4624 6.0125C18.9723 5.50162 19.2586 4.8093 19.2586 4.0875C19.2586 3.3657 18.9723 2.67339 18.4624 2.1625C17.9539 1.65772 17.2664 1.37461 16.5499 1.375C15.8296 1.37403 15.1379 1.65698 14.6249 2.1625L13.7499 3.025L13.1874 3.575L13.1999 3.5875ZM6.88737 13.75L8.36237 10.7125L9.92487 12.2875L6.88737 13.75ZM9.38737 9.55L14.2624 4.6625L15.8874 6.3L11.0624 11.25L9.38737 9.55ZM16.4874 2.9125C16.6384 2.91199 16.7881 2.94157 16.9276 2.99952C17.0671 3.05746 17.1936 3.14262 17.2999 3.25C17.5159 3.46774 17.6371 3.76203 17.6371 4.06875C17.6371 4.37547 17.5159 4.66976 17.2999 4.8875L16.9874 5.1875L15.3624 3.5625L15.6749 3.25C15.7877 3.13891 15.9231 3.05348 16.072 2.99955C16.2208 2.94562 16.3796 2.92445 16.5374 2.9375L16.4874 2.9125Z" fill="#1C2022"/>
</svg>
