<svg width="20" height="18" viewBox="0 0 20 18" fill="none" xmlns="http://www.w3.org/2000/svg">
<path d="M1.73913 17.3913H16.9565C17.9174 17.3913 18.6957 16.613 18.6957 15.6522V12.1739C19.413 12.1739 20 11.587 20 10.8696V6.52174C20 5.80435 19.413 5.21739 18.6957 5.21739V1.73913C18.6957 0.778261 17.9174 0 16.9565 0H1.73913C0.778261 0 0 0.778261 0 1.73913V15.6522C0 16.613 0.778261 17.3913 1.73913 17.3913ZM17.8261 15.6522C17.8261 16.1304 17.4348 16.5217 16.9565 16.5217H16.713C16.8609 16.2652 16.9565 15.9696 16.9565 15.6522V12.1739H17.8261V15.6522ZM19.1304 6.52174V10.8696C19.1304 11.1087 18.9348 11.3043 18.6957 11.3043H12.1739C10.7348 11.3043 9.56522 10.1348 9.56522 8.69565C9.56522 7.25652 10.7348 6.08696 12.1739 6.08696H18.6957C18.9348 6.08696 19.1304 6.28261 19.1304 6.52174ZM17.8261 1.73913V5.21739H16.9565V1.73913C16.9565 1.42174 16.8652 1.12609 16.713 0.869565H16.9565C17.4348 0.869565 17.8261 1.26087 17.8261 1.73913ZM0.869565 1.73913C0.869565 1.26087 1.26087 0.869565 1.73913 0.869565H15.2174C15.6957 0.869565 16.087 1.26087 16.087 1.73913V5.21739H12.1739C10.2565 5.21739 8.69565 6.77826 8.69565 8.69565C8.69565 10.613 10.2565 12.1739 12.1739 12.1739H16.087V15.6522C16.087 16.1304 15.6957 16.5217 15.2174 16.5217H1.73913C1.26087 16.5217 0.869565 16.1304 0.869565 15.6522V1.73913ZM12.1739 6.52174C10.9739 6.52174 10 7.49565 10 8.69565C10 9.89565 10.9739 10.8696 12.1739 10.8696C13.3739 10.8696 14.3478 9.89565 14.3478 8.69565C14.3478 7.49565 13.3739 6.52174 12.1739 6.52174ZM12.1739 10C11.4565 10 10.8696 9.41304 10.8696 8.69565C10.8696 7.97826 11.4565 7.3913 12.1739 7.3913C12.8913 7.3913 13.4783 7.97826 13.4783 8.69565C13.4783 9.41304 12.8913 10 12.1739 10ZM1.73913 15.2174V2.17391C1.73913 1.93478 1.93478 1.73913 2.17391 1.73913C2.41304 1.73913 2.6087 1.93478 2.6087 2.17391V15.2174C2.6087 15.4565 2.41304 15.6522 2.17391 15.6522C1.93478 15.6522 1.73913 15.4565 1.73913 15.2174Z" fill="#1C2022"/>
</svg>
